<svg width="511.997" height="511.997" xmlns="http://www.w3.org/2000/svg" xml:space="preserve" version="1.1">

 <g>
  <title>Layer 1</title>
  <circle id="svg_1" transform="matrix(0.14 0 0 0.14 220.159 220.159)" shape="circle" fill="#f50b0b" cy="1605.99849" cx="-751.14435" r="255.9985"/>
  <g id="svg_2" transform="matrix(-0.988326 0 0 1.07225 511.008 -13.4964)">
   <g id="svg_3" xmlns="http://www.w3.org/2000/svg">
    <g id="svg_4">
     <path id="svg_5" data-original="#000000" fill="#f50b0b" d="m405.387,362.612c-35.202,0 -63.84,28.639 -63.84,63.84s28.639,63.84 63.84,63.84s63.84,-28.639 63.84,-63.84s-28.639,-63.84 -63.84,-63.84zm0,89.376c-14.083,0 -25.536,-11.453 -25.536,-25.536s11.453,-25.536 25.536,-25.536c14.083,0 25.536,11.453 25.536,25.536s-11.453,25.536 -25.536,25.536z"/>
    </g>
   </g>
   <g id="svg_6" xmlns="http://www.w3.org/2000/svg">
    <g id="svg_7">
     <path id="svg_8" data-original="#000000" fill="#f50b0b" d="m507.927,115.875c-3.626,-4.641 -9.187,-7.348 -15.079,-7.348l-374.628,0l-17.237,-72.12c-2.062,-8.618 -9.768,-14.702 -18.629,-14.702l-63.202,0c-10.578,-0.001 -19.152,8.573 -19.152,19.151s8.574,19.152 19.152,19.152l48.085,0l62.244,260.443c2.062,8.625 9.768,14.702 18.629,14.702l298.135,0c8.804,0 16.477,-6.001 18.59,-14.543l46.604,-188.329c1.41,-5.719 0.114,-11.765 -3.512,-16.406zm-76.666,180.975l-268.034,0l-35.853,-150.019l341.003,0l-37.116,150.019z"/>
    </g>
   </g>
   <g id="svg_9" xmlns="http://www.w3.org/2000/svg">
    <g id="svg_10">
     <path id="svg_11" data-original="#000000" fill="#f50b0b" d="m173.646,362.612c-35.202,0 -63.84,28.639 -63.84,63.84s28.639,63.84 63.84,63.84s63.84,-28.639 63.84,-63.84s-28.639,-63.84 -63.84,-63.84zm0,89.376c-14.083,0 -25.536,-11.453 -25.536,-25.536s11.453,-25.536 25.536,-25.536s25.536,11.453 25.536,25.536s-11.453,25.536 -25.536,25.536z"/>
    </g>
   </g>
   <g id="svg_12" xmlns="http://www.w3.org/2000/svg"/>
   <g id="svg_13" xmlns="http://www.w3.org/2000/svg"/>
   <g id="svg_14" xmlns="http://www.w3.org/2000/svg"/>
   <g id="svg_15" xmlns="http://www.w3.org/2000/svg"/>
   <g id="svg_16" xmlns="http://www.w3.org/2000/svg"/>
   <g id="svg_17" xmlns="http://www.w3.org/2000/svg"/>
   <g id="svg_18" xmlns="http://www.w3.org/2000/svg"/>
   <g id="svg_19" xmlns="http://www.w3.org/2000/svg"/>
   <g id="svg_20" xmlns="http://www.w3.org/2000/svg"/>
   <g id="svg_21" xmlns="http://www.w3.org/2000/svg"/>
   <g id="svg_22" xmlns="http://www.w3.org/2000/svg"/>
   <g id="svg_23" xmlns="http://www.w3.org/2000/svg"/>
   <g id="svg_24" xmlns="http://www.w3.org/2000/svg"/>
   <g id="svg_25" xmlns="http://www.w3.org/2000/svg"/>
   <g id="svg_26" xmlns="http://www.w3.org/2000/svg"/>
  </g>
  <circle id="svg_27" transform="matrix(0.14 0 0 0.14 220.159 220.159)" shape="circle" fill="#f50b0b" cy="1598.85564" cx="841.71278" r="255.9985"/>
  <path d="m362.9985,105.9985c-1,2 -3.79568,7.09114 -7,14c-2.82245,6.08553 -4.4588,7.69344 -5,9.00001c-0.76535,1.84776 0,3 0,4c0,1 -1.29361,2.7265 -5,7c-3.276,3.77727 -5.61383,6.297 -8,9c-1.47983,1.67633 -1.29291,2.29289 -2,3c-0.70709,0.70711 2,1 4,1c3,0 5,0 9,0c3,0 5,0 7,0c4,0 6,0 8,0c3,0 5,0 6,0c1,0 2.29291,0.70711 3,0c0.70709,-0.70711 1.57147,-4.85873 6,-24c3.44806,-14.9034 6.06586,-25.98049 9,-36.00001c2.04602,-6.98669 3,-11 3,-13c0,-1 0,-2 0,-3c0,-1 0,-2 -1,-2c-1,0 -4,0 -6,0c-3,0 -6.02386,-0.57736 -13,0c-6.06204,0.50171 -14.11499,2.53899 -23,5c-9.14261,2.53236 -14,3 -17,4l-2,0l-1,0l-1,0" id="svg_28" fill="none"/>
  <path stroke="null" d="m343.44295,108.9985c0,0.68302 0,1.36603 0,2.04905c0,0.68302 -0.46731,1.46804 0,2.04905c1.04495,1.29917 2.21002,1.92866 2.66667,3.41508c0.40845,1.32949 0,2.04905 0,2.73206c0,0.68302 0.7465,1.37485 0.88889,2.04905c0.45025,2.132 2.66667,4.78111 2.66667,5.46413c0,0.68302 0.88889,0.68302 1.77778,0.68302c0.88889,0 1.77778,0 2.66667,-0.68302c1.77778,-1.36603 3.86328,-3.89691 5.33333,-5.46413c1.16219,-1.23899 2.1856,-3.20569 2.66667,-4.09809c0.34017,-0.63102 0,-1.36603 0,-2.04905c0,-0.68302 0,-1.36603 0,-2.04905c0,-0.68302 -0.75982,0.00724 -0.88889,0.68302c-1.34763,7.0553 -3.99889,14.30693 -4.44444,19.12443c-0.37807,4.08778 -0.88889,6.14714 -0.88889,7.51317c0,0.68302 0.34017,1.41803 0,2.04905c-0.48107,0.8924 -1.77778,1.36603 -1.77778,0.68302c0,-2.04905 0.20597,-6.09774 1.77778,-10.24523c2.04937,-5.40767 2.66667,-6.83015 3.55556,-8.19618c0.88889,-1.36603 2.03814,-2.24911 2.66667,-2.73207c0.62853,-0.48297 0.88889,-1.36603 0.88889,-2.04905c0,-0.68302 0.88889,-0.68302 1.77778,-0.68302c0.88889,0 1.77778,0 2.66667,0c0.88889,0 1.67551,-0.18736 3.55556,-0.68302c4.28714,-1.13026 6.22222,-0.68302 7.11111,-0.68302c1.77778,0 2.66667,0 3.55556,0c0.88889,0 1.80157,-0.15692 2.66667,0c1.93443,0.35089 2.66667,1.36603 2.66667,2.04905c0,0.68302 0,1.36603 -1.77778,2.73207c-2.66667,2.04905 -6.64472,5.55643 -11.55556,6.83015c-7.62646,1.97807 -15.28296,1.32613 -30.22222,-1.36603c-15.33507,-2.76349 -18.66667,-4.78111 -19.55556,-6.14714l-0.88889,-1.36603l0.88889,-2.73206l1.77778,-1.36603" id="svg_29" fill="none"/>
 </g>
</svg>